<?xml version="1.0" standalone="no"?><!DOCTYPE svg PUBLIC "-//W3C//DTD SVG 1.1//EN"
        "http://www.w3.org/Graphics/SVG/1.1/DTD/svg11.dtd">
<svg t="1735914076545" class="icon" viewBox="0 0 1024 1024" version="1.1" xmlns="http://www.w3.org/2000/svg" p-id="4622"
     width="15" height="15">
    <path d="M609.834667 268.501333a42.666667 42.666667 0 0 1 60.330666 0l213.333334 213.333334a42.666667 42.666667 0 0 1 0 60.330666l-213.333334 213.333334a42.666667 42.666667 0 0 1-60.330666-60.330667L793.002667 512l-183.168-183.168a42.666667 42.666667 0 0 1 0-60.330667zM414.165333 268.501333a42.666667 42.666667 0 0 1 0 60.330667L230.997333 512l183.168 183.168a42.666667 42.666667 0 0 1-60.330666 60.330667l-213.333334-213.333334a42.666667 42.666667 0 0 1 0-60.330666l213.333334-213.333334a42.666667 42.666667 0 0 1 60.330666 0zM449.834667 658.389333L550.826667 365.653333l40.32 13.909334-100.949334 292.778666-40.362666-13.909333z"
          fill="#000000" p-id="4623"></path>
</svg>