<?xml version="1.0" standalone="no"?><!DOCTYPE svg PUBLIC "-//W3C//DTD SVG 1.1//EN"
        "http://www.w3.org/Graphics/SVG/1.1/DTD/svg11.dtd">
<svg t="1735485367364" class="icon" viewBox="0 0 1024 1024" version="1.1" xmlns="http://www.w3.org/2000/svg" p-id="2087"
     width="15" height="15">
    <path d="M694.570667 406.101333l-41.514667 81.621334L333.696 328.533333l41.472-81.621333 319.402667 159.146667z m-357.12-273.237333L218.624 366.506667l472.149333 235.264 118.826667-233.685334L337.450667 132.864z"
          fill="#2c2c2c" p-id="2088"></path>
    <path d="M299.434667 402.346667l75.093333 40.533333-41.514667 81.621333 78.890667 39.253334 83.157333 41.472 41.472-81.578667 75.946667 38.826667-79.744 156.885333-314.752-156.842667 81.450667-160.213333z"
          fill="#2c2c2c" p-id="2089"></path>
    <path d="M296.704 601.728l157.312 78.378667-39.850667 78.336-98.56 0.128-98.56-0.170667 79.658667-156.672z"
          fill="#2c2c2c" p-id="2090"></path>
    <path d="M775.68 899.029333l-558.592-3.157333 0.426667-85.333333 558.592 3.157333-0.426667 85.333333z"
          fill="#2c2c2c" p-id="2091"></path>
</svg>