<?xml version="1.0" standalone="no"?>
<!DOCTYPE svg PUBLIC "-//W3C//DTD SVG 20010904//EN"
        "http://www.w3.org/TR/2001/REC-SVG-20010904/DTD/svg10.dtd">
<svg version="1.0" xmlns="http://www.w3.org/2000/svg"
     width="380.000000pt" height="380.000000pt" viewBox="0 0 380.000000 380.000000"
     preserveAspectRatio="xMidYMid meet">

    <g transform="translate(0.000000,380.000000) scale(0.100000,-0.100000)"
       fill="#270e4b" stroke="none">
        <path d="M1365 3733 c-122 -41 -438 -207 -459 -242 -22 -34 108 4 289 86 61
27 148 65 195 83 50 20 99 48 119 67 l34 33 -49 0 c-27 -1 -85 -13 -129 -27z"/>
        <path d="M2116 3752 c-4 -7 28 -22 86 -41 92 -30 237 -87 438 -174 98 -42 180
-67 180 -53 0 3 -26 24 -57 48 -61 44 -260 135 -409 187 -97 33 -227 51 -238
33z"/>
        <path d="M1765 3692 c-192 -69 -492 -178 -585 -212 -58 -21 -220 -79 -360
-129 -331 -118 -522 -193 -527 -207 -2 -7 25 -19 64 -29 37 -9 154 -43 258
-76 237 -74 366 -109 376 -104 4 3 10 21 13 40 11 57 68 105 182 153 114 49
289 104 407 129 109 24 348 23 467 0 176 -35 503 -149 550 -192 11 -10 29 -46
40 -81 12 -35 25 -66 30 -69 9 -6 109 27 315 103 l130 48 3 85 c2 61 -1 89
-10 96 -17 13 -175 80 -258 109 -65 23 -174 64 -385 144 -233 88 -608 220
-623 219 -10 -1 -48 -13 -87 -27z"/>
        <path d="M3168 3238 c-2 -7 -4 -151 -4 -320 l1 -308 -22 0 c-45 0 -53 -9 -53
-66 l0 -54 100 0 101 0 -3 58 c-3 56 -3 57 -35 60 -37 4 -36 2 -24 34 11 31
24 570 13 585 -12 19 -68 28 -74 11z"/>
        <path d="M3270 3183 c0 -50 11 -73 34 -73 22 0 106 35 106 44 0 9 -73 43 -107
51 -31 6 -33 5 -33 -22z"/>
        <path d="M1725 3193 c-179 -25 -420 -95 -553 -162 l-59 -30 -46 -129 c-25 -71
-48 -149 -52 -173 l-7 -45 42 4 c108 11 385 -39 547 -99 32 -11 97 -34 145
-51 l87 -30 73 25 c40 14 123 45 183 68 184 70 260 89 385 97 118 8 170 26
170 59 0 8 -13 54 -30 101 -16 48 -33 105 -37 127 -7 36 -14 43 -63 67 -93 46
-379 136 -499 158 -105 18 -210 23 -286 13z"/>
        <path d="M362 2935 c-45 -62 -128 -215 -164 -305 -271 -672 -185 -1375 229
-1872 63 -76 110 -118 132 -118 5 0 22 21 37 46 27 45 27 47 9 60 -10 8 -23
14 -28 14 -26 0 -81 60 -150 162 -128 191 -189 332 -243 563 -47 204 -44 587
6 803 25 106 107 359 126 392 8 14 28 51 43 83 16 31 47 82 70 112 57 75 58
81 20 94 -47 16 -51 15 -87 -34z"/>
        <path d="M3338 2964 c-27 -14 -37 -47 -19 -58 12 -8 88 -124 129 -198 70 -127
146 -349 179 -528 22 -119 25 -535 5 -645 -30 -164 -112 -383 -204 -543 -189
-330 -420 -538 -775 -700 -104 -47 -144 -61 -297 -102 -171 -46 -265 -60 -431
-67 -200 -8 -408 24 -610 93 -69 23 -319 147 -360 178 -18 14 -42 26 -52 26
-22 0 -45 -34 -37 -55 16 -42 300 -191 470 -248 183 -60 287 -78 491 -84 196
-6 270 1 463 44 301 66 675 256 874 443 71 67 192 205 236 270 14 21 52 77 86
126 114 169 199 375 238 584 26 137 39 377 26 503 -24 238 -97 501 -192 691
-55 109 -167 286 -181 286 -7 -1 -24 -8 -39 -16z"/>
        <path d="M2675 2609 c-19 -17 -35 -36 -35 -41 0 -13 150 -168 162 -168 17 0
68 94 68 127 0 98 -119 148 -195 82z"/>
        <path d="M2315 2534 c-68 -35 -189 -137 -339 -285 l-159 -157 -5 -54 c-3 -44
0 -58 17 -78 21 -25 21 -25 36 -5 9 11 18 29 20 40 2 11 6 33 10 48 8 37 168
204 293 306 133 108 136 110 161 87 12 -11 22 -17 24 -15 20 27 37 61 37 73 0
13 -45 56 -59 56 -3 0 -19 -7 -36 -16z"/>
        <path d="M2532 2504 c-12 -8 -22 -22 -22 -30 0 -22 154 -174 177 -174 24 0 49
42 37 63 -18 30 -144 157 -157 157 -7 0 -23 -7 -35 -16z"/>
        <path d="M1719 1684 c-404 -404 -785 -786 -847 -847 -121 -119 -216 -241 -257
-329 -28 -59 -32 -88 -12 -88 7 0 78 33 158 73 112 56 148 79 164 104 14 22
26 32 38 29 12 -3 32 11 60 42 78 87 1441 1446 1520 1515 l77 69 -26 31 c-44
53 -126 137 -134 137 -4 0 -337 -331 -741 -736z"/>
        <path d="M3090 2383 c-1 -106 -19 -440 -25 -455 -13 -34 17 -18 71 38 31 31
56 55 58 53 1 -2 10 -17 20 -32 17 -27 71 -67 91 -67 8 0 9 27 3 83 -4 45 -10
157 -14 250 l-6 167 -99 0 -99 0 0 -37z"/>
        <path d="M728 2209 c-10 -5 -29 -29 -42 -52 -24 -41 -25 -49 -28 -272 -3 -227
-3 -230 20 -263 32 -44 71 -62 135 -62 l54 0 6 83 c9 106 9 268 0 440 l-6 137
-61 0 c-34 0 -69 -5 -78 -11z"/>
        <path d="M967 2123 c-4 -82 -3 -466 2 -540 1 -18 8 -22 56 -25 l55 -3 0 333 0
332 -54 0 -53 0 -6 -97z"/>
        <path d="M1177 1963 c-3 -142 -3 -293 0 -336 l6 -78 81 6 c45 4 99 3 121 -2
l40 -9 153 151 152 152 -20 46 c-11 25 -25 69 -30 97 -12 64 2 102 66 177 l46
53 -305 0 -304 0 -6 -257z"/>
        <path d="M2412 1897 c-178 -178 -320 -326 -316 -330 4 -4 164 -7 355 -7 l347
0 32 26 c60 51 64 69 68 287 2 109 1 209 -2 222 -13 51 -98 125 -143 125 -10
0 -156 -137 -341 -323z"/>
        <path d="M590 1463 c-14 -3 -31 -10 -37 -15 -16 -13 -17 -64 -1 -74 6 -4 164
-9 350 -11 l338 -4 45 38 c25 20 45 40 45 44 0 4 -12 10 -27 13 -34 7 -678 15
-713 9z"/>
        <path d="M1942 1440 c-38 -24 -51 -48 -31 -61 8 -5 163 -9 344 -9 182 0 395
-3 475 -6 l145 -7 53 -54 c153 -156 146 -378 -17 -511 l-54 -44 -794 3 -794 2
-45 -43 c-25 -24 -41 -47 -36 -52 12 -12 1689 -11 1731 2 103 30 231 249 231
395 0 106 -61 247 -138 322 -86 82 -51 77 -572 81 -455 3 -466 3 -498 -18z"/>
        <path d="M684 1291 c-2 -2 -4 -13 -4 -23 0 -17 14 -18 234 -18 201 0 235 2
240 15 3 9 0 18 -7 20 -16 6 -457 11 -463 6z"/>
        <path d="M1819 1287 c-65 -33 -32 -36 493 -41 285 -3 525 -3 533 0 8 4 15 14
15 23 0 16 -35 18 -501 19 -276 1 -504 4 -508 6 -4 3 -18 -1 -32 -7z"/>
        <path d="M1654 1139 c-8 -8 -14 -20 -14 -25 0 -6 67 -8 168 -7 92 2 361 4 599
6 238 1 435 6 439 10 4 4 3 11 -2 16 -5 5 -269 11 -592 13 -522 3 -585 1 -598
-13z"/>
        <path d="M680 1130 c0 -23 -2 -23 193 -24 75 -1 137 2 137 5 0 4 3 14 6 23 5
14 -13 16 -165 16 -164 0 -171 -1 -171 -20z"/>
        <path d="M2613 959 c4 -46 7 -108 7 -136 0 -61 20 -72 44 -24 21 40 65 91 80
91 6 0 32 -18 56 -39 25 -22 49 -36 53 -32 4 4 3 39 -3 77 -6 38 -9 84 -5 102
l6 32 -83 0 c-46 0 -101 3 -122 7 l-39 6 6 -84z"/>
        <path d="M700 991 c0 -17 6 -21 36 -21 19 0 44 -5 55 -10 13 -7 25 -8 37 -1
16 10 16 10 -1 11 -10 0 -15 5 -12 11 4 5 18 9 33 7 14 -2 27 2 29 8 2 6 -29
11 -87 13 -85 2 -90 1 -90 -18z"/>
        <path d="M1533 999 c-7 -7 -13 -18 -13 -23 0 -14 1021 -9 1034 5 5 5 7 11 4
14 -3 4 -232 9 -509 12 -410 4 -506 3 -516 -8z"/>
        <path d="M1387 863 c-4 -3 -7 -15 -7 -26 0 -19 5 -20 122 -14 66 4 330 7 585
7 380 0 463 2 463 13 0 11 -45 15 -212 20 -275 9 -943 9 -951 0z"/>
        <path d="M675 851 c-3 -5 -1 -12 5 -16 5 -3 10 1 10 9 0 18 -6 21 -15 7z"/>
    </g>
</svg>
