<?xml version="1.0" standalone="no"?><!DOCTYPE svg PUBLIC "-//W3C//DTD SVG 1.1//EN"
        "http://www.w3.org/Graphics/SVG/1.1/DTD/svg11.dtd">
<svg t="1735485405577" class="icon" viewBox="0 0 1024 1024" version="1.1" xmlns="http://www.w3.org/2000/svg" p-id="2546"
     width="15" height="15">
    <path d="M384 768a42.666667 42.666667 0 0 1 42.666667-42.666667h426.666666a42.666667 42.666667 0 1 1 0 85.333334H426.666667a42.666667 42.666667 0 0 1-42.666667-42.666667zM128 597.333333a42.666667 42.666667 0 0 1 42.666667-42.666666h682.666666a42.666667 42.666667 0 1 1 0 85.333333H170.666667a42.666667 42.666667 0 0 1-42.666667-42.666667zM384 426.666667a42.666667 42.666667 0 0 1 42.666667-42.666667h426.666666a42.666667 42.666667 0 1 1 0 85.333333H426.666667a42.666667 42.666667 0 0 1-42.666667-42.666666zM128 256a42.666667 42.666667 0 0 1 42.666667-42.666667h682.666666a42.666667 42.666667 0 1 1 0 85.333334H170.666667a42.666667 42.666667 0 0 1-42.666667-42.666667z"
          fill="#14181F" p-id="2547"></path>
</svg>